# xmcd CD database file
#
# Track frame offsets:
#	150
#	19362
#	42460
#	63042
#	84980
#	104855
#	134040
#	156425
#	174857
#	198372
#	218067
#	244925
#
# Disc length: 3634 seconds
#
# Revision: 0
# Processed by: cddbd v1.4PL0 Copyright (c) Steve Scherf et al.
# Submitted via: Feurio! 1.63 - http://www.feurio.com
#
DISCID=ac0e300c
DTITLE=Krakowczyk! - Die Kapelle Spielt Den Blues
DYEAR=1900
DGENRE=Blues
TTITLE0=Josephine
TTITLE1=Ever Since The World Ended
TTITLE2=Aon't That A Bitch
TTITLE3=Die Kapelle Spielt Den Blues
TTITLE4=Top Forty
TTITLE5=Hallelujah, I Love Her So
TTITLE6=Nightclubsinger
TTITLE7=Nineteen Years old
TTITLE8=Black Princess
TTITLE9=Zum Tanze Da Geht Ein Mädel
TTITLE10=World Of trouble
TTITLE11=Southern Comfort
EXTD=
EXTT0=
EXTT1=
EXTT2=
EXTT3=
EXTT4=
EXTT5=
EXTT6=
EXTT7=
EXTT8=
EXTT9=
EXTT10=
EXTT11=
PLAYORDER=
